<svg width="84" height="84" viewBox="0 0 84 84" fill="none" xmlns="http://www.w3.org/2000/svg">
<g filter="url(#filter0_d_538_3388)">
<circle cx="42" cy="42" r="25" fill="white"/>
</g>
<path d="M41.9976 32.3687C39.4427 32.3687 36.9924 33.3836 35.1858 35.1902C33.3792 36.9968 32.3643 39.4471 32.3643 42.002C32.3643 44.5569 33.3792 47.0072 35.1858 48.8138C36.9924 50.6204 39.4427 51.6353 41.9976 51.6353C44.5525 51.6353 47.0028 50.6204 48.8094 48.8138C50.616 47.0072 51.6309 44.5569 51.6309 42.002C51.6309 39.4471 50.616 36.9968 48.8094 35.1902C47.0028 33.3836 44.5525 32.3687 41.9976 32.3687ZM41.9976 48.2582C40.3378 48.2582 38.7459 47.5989 37.5723 46.4252C36.3986 45.2515 35.7393 43.6597 35.7393 41.9999C35.7393 40.3401 36.3986 38.7483 37.5723 37.5746C38.7459 36.4009 40.3378 35.7416 41.9976 35.7416C43.6574 35.7416 45.2492 36.4009 46.4229 37.5746C47.5966 38.7483 48.2559 40.3401 48.2559 41.9999C48.2559 43.6597 47.5966 45.2515 46.4229 46.4252C45.2492 47.5989 43.6574 48.2582 41.9976 48.2582Z" fill="#D6258F"/>
<path d="M52.0124 34.2602C53.2528 34.2602 54.2583 33.2547 54.2583 32.0144C54.2583 30.774 53.2528 29.7686 52.0124 29.7686C50.7721 29.7686 49.7666 30.774 49.7666 32.0144C49.7666 33.2547 50.7721 34.2602 52.0124 34.2602Z" fill="#D6258F"/>
<path d="M59.7768 29.7311C59.2945 28.4856 58.5575 27.3546 57.6129 26.4104C56.6684 25.4662 55.537 24.7296 54.2914 24.2478C52.8338 23.7006 51.2939 23.4047 49.7372 23.3728C47.731 23.2853 47.0956 23.2603 42.0081 23.2603C36.9206 23.2603 36.2685 23.2603 34.2789 23.3728C32.7235 23.4031 31.1846 23.699 29.7289 24.2478C28.4829 24.729 27.3513 25.4654 26.4067 26.4097C25.462 27.354 24.7252 28.4853 24.2435 29.7311C23.6962 31.1886 23.401 32.7287 23.3706 34.2853C23.281 36.2894 23.2539 36.9248 23.2539 42.0144C23.2539 47.1019 23.2539 47.7498 23.3706 49.7436C23.4018 51.3019 23.6956 52.8394 24.2435 54.2998C24.7266 55.5452 25.4641 56.676 26.409 57.6202C27.3539 58.5644 28.4853 59.301 29.731 59.7832C31.184 60.3523 32.7234 60.6694 34.2831 60.7207C36.2893 60.8082 36.9247 60.8353 42.0122 60.8353C47.0997 60.8353 47.7518 60.8353 49.7414 60.7207C51.2979 60.689 52.8377 60.3939 54.2956 59.8478C55.5409 59.3648 56.6719 58.6276 57.6163 57.6831C58.5608 56.7386 59.298 55.6077 59.781 54.3623C60.3289 52.904 60.6227 51.3665 60.6539 49.8082C60.7435 47.804 60.7706 47.1686 60.7706 42.079C60.7706 36.9894 60.7706 36.3436 60.6539 34.3498C60.6297 32.7712 60.3329 31.2087 59.7768 29.7311ZM57.2393 49.5894C57.2259 50.7901 57.0067 51.9795 56.5914 53.1061C56.2785 53.9162 55.7996 54.6519 55.1853 55.2658C54.571 55.8797 53.8351 56.3583 53.0247 56.6707C51.9106 57.0841 50.7338 57.3033 49.5456 57.3186C47.5664 57.4103 47.0081 57.4332 41.9331 57.4332C36.8539 57.4332 36.3352 57.4332 34.3185 57.3186C33.1308 57.3041 31.9546 57.0849 30.8414 56.6707C30.0283 56.3602 29.2893 55.8825 28.6724 55.2685C28.0555 54.6545 27.5744 53.9178 27.2602 53.1061C26.8507 51.9916 26.6316 50.8162 26.6122 49.629C26.5227 47.6498 26.5018 47.0915 26.5018 42.0165C26.5018 36.9394 26.5018 36.4207 26.6122 34.4019C26.6257 33.202 26.8449 32.0132 27.2602 30.8873C27.8956 29.2436 29.1977 27.9498 30.8414 27.3207C31.9551 26.9085 33.131 26.6893 34.3185 26.6728C36.2997 26.5832 36.856 26.5582 41.9331 26.5582C47.0102 26.5582 47.531 26.5582 49.5456 26.6728C50.7339 26.687 51.9109 26.9062 53.0247 27.3207C53.835 27.6337 54.5709 28.1128 55.1851 28.727C55.7993 29.3412 56.2783 30.0771 56.5914 30.8873C57.0009 32.0018 57.2199 33.1773 57.2393 34.3644C57.3289 36.3457 57.3518 36.9019 57.3518 41.979C57.3518 47.054 57.3518 47.5998 57.2622 49.5915H57.2393V49.5894Z" fill="#D6258F"/>
<defs>
<filter id="filter0_d_538_3388" x="0" y="0" width="84" height="84" filterUnits="userSpaceOnUse" color-interpolation-filters="sRGB">
<feFlood flood-opacity="0" result="BackgroundImageFix"/>
<feColorMatrix in="SourceAlpha" type="matrix" values="0 0 0 0 0 0 0 0 0 0 0 0 0 0 0 0 0 0 127 0" result="hardAlpha"/>
<feMorphology radius="5" operator="dilate" in="SourceAlpha" result="effect1_dropShadow_538_3388"/>
<feOffset/>
<feGaussianBlur stdDeviation="6"/>
<feColorMatrix type="matrix" values="0 0 0 0 0.764706 0 0 0 0 0.027451 0 0 0 0 0.47451 0 0 0 1 0"/>
<feBlend mode="normal" in2="BackgroundImageFix" result="effect1_dropShadow_538_3388"/>
<feBlend mode="normal" in="SourceGraphic" in2="effect1_dropShadow_538_3388" result="shape"/>
</filter>
</defs>
</svg>
