<svg width="84" height="84" viewBox="0 0 84 84" fill="none" xmlns="http://www.w3.org/2000/svg">
<g filter="url(#filter0_d_538_3385)">
<circle cx="42" cy="42" r="25" fill="white"/>
</g>
<path d="M61.9561 31.281C62.2478 30.3122 61.9561 29.6018 60.5769 29.6018H56.0082C54.8457 29.6018 54.3144 30.2164 54.0228 30.8914C54.0228 30.8914 51.6998 36.556 48.4082 40.2289C47.3457 41.2976 46.8603 41.6351 46.2811 41.6351C45.9915 41.6351 45.5707 41.2976 45.5707 40.3289V31.281C45.5707 30.1185 45.2353 29.6018 44.2665 29.6018H37.0873C36.3623 29.6018 35.9248 30.1393 35.9248 30.6518C35.9248 31.7518 37.5707 32.006 37.7394 35.106V41.831C37.7394 43.3039 37.4748 43.5726 36.8915 43.5726C35.3436 43.5726 31.5769 37.8872 29.3415 31.3789C28.9061 30.1143 28.4665 29.6039 27.2998 29.6039H22.7332C21.4269 29.6039 21.1665 30.2185 21.1665 30.8935C21.1665 32.106 22.7144 38.106 28.3769 46.0414C32.1519 51.4601 37.4665 54.3976 42.3082 54.3976C45.2103 54.3976 45.5686 53.7456 45.5686 52.6206V48.5247C45.5686 47.2206 45.8457 46.9581 46.7644 46.9581C47.4394 46.9581 48.6019 47.2997 51.3123 49.9101C54.4082 53.006 54.9207 54.3956 56.6603 54.3956H61.2269C62.5311 54.3956 63.1832 53.7435 62.8082 52.456C62.3978 51.1747 60.9186 49.3101 58.9561 47.1039C57.8894 45.8456 56.2957 44.4914 55.8103 43.8143C55.1332 42.9414 55.329 42.556 55.8103 41.781C55.8123 41.7831 61.3769 33.9456 61.9561 31.281Z" fill="#D6258F"/>
<defs>
<filter id="filter0_d_538_3385" x="0" y="0" width="84" height="84" filterUnits="userSpaceOnUse" color-interpolation-filters="sRGB">
<feFlood flood-opacity="0" result="BackgroundImageFix"/>
<feColorMatrix in="SourceAlpha" type="matrix" values="0 0 0 0 0 0 0 0 0 0 0 0 0 0 0 0 0 0 127 0" result="hardAlpha"/>
<feMorphology radius="5" operator="dilate" in="SourceAlpha" result="effect1_dropShadow_538_3385"/>
<feOffset/>
<feGaussianBlur stdDeviation="6"/>
<feColorMatrix type="matrix" values="0 0 0 0 0.788235 0 0 0 0 0.027451 0 0 0 0 0.486275 0 0 0 1 0"/>
<feBlend mode="normal" in2="BackgroundImageFix" result="effect1_dropShadow_538_3385"/>
<feBlend mode="normal" in="SourceGraphic" in2="effect1_dropShadow_538_3385" result="shape"/>
</filter>
</defs>
</svg>
